<?xml version="1.0" encoding="UTF-8"?>
<svg width="180px" height="30px" viewBox="0 0 520 114" version="1.1" xmlns="http://www.w3.org/2000/svg" xmlns:xlink="http://www.w3.org/1999/xlink">
    <!-- Generator: Sketch 40.3 (33839) - http://www.bohemiancoding.com/sketch -->
    <title>snt-logo</title>
    <desc>Created with Sketch.</desc>
    <defs>
        <polygon id="path-1" points="39.3723 0.604 0.2413 0.604 0.2413 83.0269 39.3723 83.0269 39.3723 0.604"></polygon>
        <polygon id="path-3" points="0 86.3964 519.71 86.3964 519.71 1.0004 0 1.0004"></polygon>
    </defs>
    <g id="Page-1" stroke="none" stroke-width="1" fill="none" fill-rule="evenodd">
        <g id="snt-logo">
            <g id="Page-1" transform="translate(0.000000, 14.000000)">
                <path d="M75.6824,74.7129 L81.0124,67.5629 C86.4734,71.9829 92.0624,75.1029 99.6034,75.1029 C107.9234,75.1029 112.0834,70.6829 112.0834,65.2229 C112.0834,58.7219 104.5434,55.8619 97.6534,53.2619 C88.6824,50.0119 78.8024,45.7219 78.8024,35.0619 C78.8024,24.9209 86.8624,17.1199 100.5134,17.1199 C108.4434,17.1199 115.3334,20.3709 120.1434,24.2709 L115.0744,31.0309 C110.7834,27.7809 106.2334,25.4409 100.6434,25.4409 C92.7134,25.4409 89.0734,29.7319 89.0734,34.5409 C89.0734,40.5219 95.9634,42.7319 103.1134,45.4619 C112.2134,48.8419 122.3544,52.6119 122.3544,64.5719 C122.3544,74.8429 114.1634,83.4229 99.2134,83.4229 C90.2434,83.4229 81.6624,79.6529 75.6824,74.7129 L75.6824,74.7129 Z" id="Fill-1" fill="#FFFFFF"></path>
                <path d="M127.4211,18.6807 L136.2621,18.6807 L137.1711,27.7817 L137.5621,27.7817 C143.5421,21.8007 150.0421,17.1197 158.7531,17.1197 C172.0131,17.1197 177.9931,25.7017 177.9931,41.8217 L177.9931,81.8637 L167.3331,81.8637 L167.3331,43.2517 C167.3331,31.4207 163.6921,26.3507 155.3721,26.3507 C148.8721,26.3507 144.4521,29.7317 138.0821,36.1017 L138.0821,81.8637 L127.4211,81.8637 L127.4211,18.6807 Z" id="Fill-3" fill="#FFFFFF"></path>
                <g id="Group-7" transform="translate(181.000000, 0.396400)">
                    <mask id="mask-2" fill="white">
                        <use xlink:href="#path-1"></use>
                    </mask>
                    <g id="Clip-6"></g>
                    <path d="M9.6013,61.9659 L9.6013,26.9939 L0.2413,26.9939 L0.2413,18.9349 L10.1213,18.2839 L11.4213,0.6039 L20.3923,0.6039 L20.3923,18.2839 L37.4223,18.2839 L37.4223,26.9939 L20.3923,26.9939 L20.3923,62.0959 C20.3923,69.8969 22.8613,74.3169 30.1423,74.3169 C32.3523,74.3169 35.2123,73.4059 37.2923,72.6259 L39.3723,80.6869 C35.8623,81.8569 31.5723,83.0269 27.6723,83.0269 C14.1513,83.0269 9.6013,74.4459 9.6013,61.9659" id="Fill-5" fill="#FFFFFF" mask="url(#mask-2)"></path>
                </g>
                <path d="M244.7405,25.3232 L244.7405,39.2932 L244.9605,39.2932 C245.4725,37.0932 246.2805,35.0772 247.3805,33.2432 C248.4805,31.4112 249.8365,29.7972 251.4505,28.4032 C253.0625,27.0102 254.8415,25.9272 256.7855,25.1582 C258.7275,24.3872 260.8005,24.0032 263.0005,24.0032 C267.4005,23.8572 271.0855,24.9752 274.0555,27.3582 C277.0255,29.7422 278.9875,33.0232 279.9415,37.2032 L280.1605,37.2032 C281.2605,33.2432 283.4225,30.0522 286.6515,27.6332 C289.8765,25.2132 293.6915,24.0032 298.0905,24.0032 C301.5365,24.0032 304.3975,24.5162 306.6705,25.5432 C308.9435,26.5712 310.7775,27.9822 312.1705,29.7782 C313.5635,31.5762 314.5525,33.7382 315.1405,36.2672 C315.7275,38.7982 316.0205,41.6032 316.0205,44.6822 L316.0205,81.8632 L313.8215,81.8632 L313.8215,44.6822 C313.8215,41.8962 313.5815,39.3672 313.1065,37.0932 C312.6275,34.8212 311.7855,32.8772 310.5755,31.2622 C309.3655,29.6502 307.7515,28.4032 305.7365,27.5232 C303.7175,26.6422 301.1705,26.2032 298.0905,26.2032 C295.3765,26.2032 292.9205,26.7362 290.7205,27.7982 C288.5205,28.8622 286.6515,30.3102 285.1115,32.1422 C283.5715,33.9762 282.3975,36.0862 281.5905,38.4682 C280.7825,40.8512 280.3805,43.3632 280.3805,46.0032 L280.3805,81.8632 L278.1805,81.8632 L278.1805,45.5632 C278.1805,42.9232 277.9775,40.4302 277.5755,38.0832 C277.1715,35.7372 276.4205,33.6822 275.3205,31.9232 C274.2205,30.1632 272.6805,28.7702 270.7005,27.7432 C268.7205,26.7172 266.1525,26.2032 263.0005,26.2032 C260.2125,26.2032 257.6825,26.8452 255.4105,28.1282 C253.1365,29.4122 251.2115,31.1352 249.6355,33.2982 C248.0575,35.4622 246.8475,37.9722 246.0055,40.8332 C245.1615,43.6932 244.7405,46.7012 244.7405,49.8532 L244.7405,81.8632 L242.5405,81.8632 L242.5405,25.3232 L244.7405,25.3232 Z" id="Fill-8" fill="#FFFFFF"></path>
                <path d="M370.6911,41.9883 C369.7371,38.8723 368.3261,36.1403 366.4561,33.7933 C364.5861,31.4473 362.2561,29.5953 359.4701,28.2383 C356.6831,26.8823 353.4571,26.2033 349.7911,26.2033 C346.7111,26.2033 343.8321,26.7913 341.1561,27.9633 C338.4781,29.1363 336.1311,30.8423 334.1161,33.0783 C332.0981,35.3153 330.4661,38.0103 329.2201,41.1633 C327.9731,44.3173 327.2411,47.8733 327.0211,51.8333 L372.1211,51.8333 C372.1211,48.3863 371.6431,45.1053 370.6911,41.9883 M328.3961,64.6483 C329.2381,67.9123 330.5411,70.7533 332.3001,73.1733 C334.0611,75.5933 336.3331,77.5013 339.1211,78.8923 C341.9071,80.2873 345.3171,80.9833 349.3501,80.9833 C355.2911,80.9833 360.2211,79.4263 364.1461,76.3073 C368.0681,73.1923 370.5061,68.5163 371.4611,62.2833 L373.6611,62.2833 C372.8531,68.8833 370.2511,73.9983 365.8501,77.6283 C361.4511,81.2583 356.0231,83.0733 349.5711,83.0733 C345.1701,83.1453 341.4121,82.4493 338.2951,80.9833 C335.1781,79.5163 332.6301,77.4463 330.6511,74.7673 C328.6701,72.0923 327.2031,68.9383 326.2511,65.3073 C325.2961,61.6773 324.8211,57.7733 324.8211,53.5923 C324.8211,48.9003 325.5171,44.7203 326.9111,41.0523 C328.3031,37.3863 330.1361,34.2883 332.4111,31.7583 C334.6831,29.2283 337.3231,27.3023 340.3311,25.9833 C343.3371,24.6633 346.4171,24.0033 349.5711,24.0033 C353.9701,24.0033 357.7651,24.8463 360.9561,26.5333 C364.1461,28.2203 366.7481,30.4573 368.7651,33.2433 C370.7821,36.0313 372.2481,39.2203 373.1661,42.8133 C374.0821,46.4073 374.4661,50.1463 374.3211,54.0333 L327.0211,54.0333 C327.0921,57.8463 327.5511,61.3853 328.3961,64.6483" id="Fill-10" fill="#FFFFFF"></path>
                <path d="M420.8503,33.2979 C416.6703,28.5689 411.1323,26.2029 404.2413,26.2029 C400.4263,26.2029 397.1263,27.0279 394.3403,28.6779 C391.5533,30.3279 389.2813,32.4559 387.5213,35.0579 C385.7603,37.6619 384.4573,40.5959 383.6163,43.8589 C382.7723,47.1219 382.3503,50.4029 382.3503,53.7029 C382.3503,57.2969 382.8083,60.7429 383.7253,64.0429 C384.6423,67.3429 385.9973,70.2579 387.7953,72.7879 C389.5913,75.3189 391.8663,77.3179 394.6163,78.7829 C397.3663,80.2509 400.5733,80.9839 404.2413,80.9839 C407.9073,80.9839 411.1523,80.2509 413.9753,78.7829 C416.7973,77.3179 419.1823,75.3369 421.1253,72.8429 C423.0683,70.3509 424.5533,67.4529 425.5803,64.1529 C426.6073,60.8539 427.1213,57.3709 427.1213,53.7029 C427.1213,44.8309 425.0313,38.0279 420.8503,33.2979 L420.8503,33.2979 Z M429.3213,3.3229 L429.3213,81.8629 L427.1213,81.8629 L427.1213,66.0239 L426.9013,66.0239 C425.4333,71.0829 422.7383,75.1909 418.8163,78.3429 C414.8923,81.4969 410.0333,83.0729 404.2413,83.0729 C400.5003,83.0729 397.1463,82.3389 394.1753,80.8729 C391.2053,79.4069 388.6753,77.3719 386.5853,74.7679 C384.4963,72.1659 382.9013,69.0679 381.8003,65.4729 C380.7013,61.8809 380.1513,57.9569 380.1513,53.7029 C380.1513,49.7429 380.6823,45.9669 381.7463,42.3729 C382.8083,38.7809 384.3483,35.6269 386.3663,32.9129 C388.3813,30.2009 390.8933,28.0369 393.9013,26.4229 C396.9073,24.8109 400.3533,24.0029 404.2413,24.0029 C410.2523,24.0029 415.2033,25.5809 419.0903,28.7339 C422.9773,31.8869 425.5803,36.0309 426.9013,41.1629 L427.1213,41.1629 L427.1213,3.3229 L429.3213,3.3229 Z" id="Fill-12" fill="#FFFFFF"></path>
                <mask id="mask-4" fill="white">
                    <use xlink:href="#path-3"></use>
                </mask>
                <g id="Clip-15"></g>
                <path d="M442.189,81.8634 L444.389,81.8634 L444.389,25.3234 L442.189,25.3234 L442.189,81.8634 Z M442.189,14.4324 L444.389,14.4324 L444.389,3.3234 L442.189,3.3234 L442.189,14.4324 Z" id="Fill-14" fill="#FFFFFF" mask="url(#mask-4)"></path>
                <path d="M494.2185,48.6426 C493.4845,49.6706 492.3485,50.4576 490.8085,51.0076 C489.2685,51.5576 487.5085,51.9806 485.5285,52.2736 C483.5485,52.5676 481.4035,52.7506 479.0935,52.8236 C476.7825,52.8966 474.5285,53.0066 472.3275,53.1536 C470.1285,53.3006 467.9835,53.5766 465.8935,53.9786 C463.8035,54.3816 461.9495,55.1166 460.3385,56.1776 C458.7245,57.2426 457.4405,58.7076 456.4885,60.5786 C455.5335,62.4486 455.0585,64.8866 455.0585,67.8926 C455.0585,69.5066 455.3325,71.1016 455.8835,72.6776 C456.4335,74.2556 457.3675,75.6486 458.6885,76.8586 C460.0085,78.0686 461.7135,79.0576 463.8035,79.8286 C465.8935,80.5976 468.4785,80.9836 471.5585,80.9836 C475.2245,80.9836 478.4885,80.3616 481.3485,79.1136 C484.2075,77.8676 486.6095,76.2366 488.5535,74.2176 C490.4955,72.2026 491.9635,69.8726 492.9525,67.2336 C493.9435,64.5926 494.4385,61.8806 494.4385,59.0926 L494.4385,48.6426 L494.2185,48.6426 Z M458.0285,35.3876 C458.9805,33.0786 460.3555,31.0806 462.1535,29.3926 C463.9485,27.7066 466.1495,26.3866 468.7535,25.4326 C471.3555,24.4806 474.4185,24.0026 477.9385,24.0026 C480.4305,24.0026 482.7955,24.2606 485.0325,24.7736 C487.2695,25.2876 489.2305,26.1856 490.9185,27.4676 C492.6045,28.7516 493.9605,30.4206 494.9885,32.4726 C496.0145,34.5276 496.5645,37.0926 496.6385,40.1726 L496.6385,76.1426 C496.6385,77.2436 496.8585,78.0506 497.2985,78.5636 C497.7385,79.0776 498.3235,79.4256 499.0585,79.6086 C499.7905,79.7916 500.5785,79.8666 501.4235,79.8286 C502.2655,79.7916 503.0545,79.7376 503.7875,79.6636 L503.7875,81.8636 L500.4885,81.8636 C498.8745,81.8636 497.4635,81.4786 496.2535,80.7076 C495.0435,79.9386 494.4385,78.4916 494.4385,76.3636 L494.4385,68.9936 L494.2185,68.9936 C493.6305,70.8276 492.6955,72.5866 491.4125,74.2736 C490.1295,75.9606 488.5155,77.4626 486.5725,78.7836 C484.6295,80.1036 482.4105,81.1486 479.9185,81.9176 C477.4245,82.6886 474.7105,83.0736 471.7785,83.0736 C466.0585,83.0736 461.4745,81.8076 458.0285,79.2786 C454.5805,76.7476 452.8585,72.9536 452.8585,67.8926 C452.8585,64.3726 453.4255,61.5506 454.5635,59.4226 C455.6985,57.2966 457.1845,55.6276 459.0185,54.4176 C460.8505,53.2076 462.9405,52.3666 465.2875,51.8876 C467.6345,51.4126 469.9805,51.1006 472.3275,50.9536 C476.2145,50.7336 479.5505,50.5326 482.3385,50.3476 C485.1245,50.1656 487.4155,49.7976 489.2135,49.2476 C491.0095,48.6986 492.3285,47.8556 493.1735,46.7176 C494.0155,45.5816 494.4385,43.9516 494.4385,41.8236 C494.4385,40.1366 494.2905,38.3766 493.9975,36.5426 C493.7035,34.7106 492.9895,33.0236 491.8535,31.4836 C490.7155,29.9436 489.0485,28.6776 486.8485,27.6886 C484.6485,26.6986 481.6785,26.2036 477.9385,26.2036 C471.9975,26.2036 467.3785,27.6526 464.0775,30.5476 C460.7785,33.4466 458.9445,37.5336 458.5775,42.8136 L456.3785,42.8136 C456.5245,40.1726 457.0735,37.6986 458.0285,35.3876 L458.0285,35.3876 Z" id="Fill-16" fill="#FFFFFF" mask="url(#mask-4)"></path>
                <polygon id="Fill-17" fill="#FFFFFF" mask="url(#mask-4)" points="502.0222 13.8066 502.0222 12.8466 508.8742 12.8466 508.8742 13.8066 506.0172 13.8066 506.0172 21.4136 504.8772 21.4136 504.8772 13.8066"></polygon>
                <polygon id="Fill-18" fill="#FFFFFF" mask="url(#mask-4)" points="512.7371 12.8467 515.4371 20.0457 518.1491 12.8467 519.7101 12.8467 519.7101 21.4137 518.6301 21.4137 518.6301 14.2857 518.6051 14.2857 515.9291 21.4137 514.9581 21.4137 512.2821 14.2857 512.2581 14.2857 512.2581 21.4137 511.1771 21.4137 511.1771 12.8467"></polygon>
                <polygon id="Fill-19" fill="#FFFFFF" mask="url(#mask-4)" points="0 49.9864 60.827 49.9864 60.827 3.6424 0 3.6424"></polygon>
                <polygon id="Fill-20" fill="#FFFFFF" mask="url(#mask-4)" points="0 86.3964 60.827 86.3964 60.827 51.6384 0 51.6384"></polygon>
            </g>
        </g>
    </g>
</svg>
